<svg width="250" height="250" viewBox="0 0 250 250" fill="none" xmlns="http://www.w3.org/2000/svg">
<g clip-path="url(#clip0_60_62)">
<rect width="250" height="250" fill="#202020"/>
<path d="M185.147 184.589C173.027 184.692 162.327 182.324 153.045 177.483C143.882 172.521 136.683 165.562 131.446 156.606C126.21 147.65 123.541 137.293 123.441 125.533C123.357 115.694 124.902 106.92 128.076 99.2127C131.37 91.3843 135.933 84.7452 141.767 79.2952C147.6 73.7252 154.344 69.4675 161.999 66.5221C169.773 63.4556 178.1 61.8845 186.979 61.8088C193.459 61.7535 199.887 62.5987 206.262 64.3443C212.636 65.97 218.657 68.4387 224.326 71.7505L215.652 88.9251C210.335 84.6503 205.028 81.4555 199.729 79.3406C194.431 77.2257 188.842 76.1934 182.962 76.2436C174.923 76.3122 167.979 78.2315 162.131 82.0015C156.283 85.7716 151.828 91.0898 148.766 97.9561C145.704 104.703 144.212 112.756 144.292 122.115C144.376 131.955 146.309 140.519 150.092 147.807C153.994 155.094 159.143 160.75 165.537 164.775C172.051 168.68 179.147 170.6 186.827 170.534C193.187 170.48 199.056 169.23 204.436 166.784C209.815 164.338 214.467 161.058 218.392 156.944L226.621 171.995C220.536 176.127 214.022 179.242 207.08 181.342C200.138 183.441 192.827 184.523 185.147 184.589Z" fill="white"/>
<path d="M117.789 148.002C119.206 152.504 121.083 156.755 123.421 160.754C129.239 170.705 137.239 178.438 147.42 183.951C147.937 184.221 148.459 184.481 148.984 184.737L100.463 185.151L74.2402 148.374L117.789 148.002Z" fill="white"/>
<path d="M116.994 105.007C115.285 111.501 114.461 118.575 114.526 126.229C114.573 131.772 115.136 137.034 116.211 142.015L69.9886 142.41L43.7666 105.632L116.994 105.007Z" fill="white"/>
<path d="M152.595 62.7021C146.031 65.7996 140.129 69.8498 134.889 74.8536C128.407 80.9092 123.336 88.286 119.677 96.9842C119.27 97.9716 118.889 98.9753 118.531 99.9941L40.223 100.662L14 63.8848L152.595 62.7021Z" fill="white"/>
</g>
<defs>
<clipPath id="clip0_60_62">
<rect width="250" height="250" fill="white"/>
</clipPath>
</defs>
</svg>
