<svg width="1200" height="1200" viewBox="0 0 1200 1200" fill="none" xmlns="http://www.w3.org/2000/svg">
  <defs>
    <linearGradient id="bg" x1="0" y1="0" x2="1200" y2="1200" gradientUnits="userSpaceOnUse">
      <stop stop-color="#F6F4EF" />
      <stop offset="1" stop-color="#EDE8DE" />
    </linearGradient>
    <linearGradient id="shape" x1="260" y1="240" x2="980" y2="960" gradientUnits="userSpaceOnUse">
      <stop stop-color="#D8D0C2" stop-opacity="0.55" />
      <stop offset="1" stop-color="#BEB5A6" stop-opacity="0.25" />
    </linearGradient>
    <filter id="soft" x="-20%" y="-20%" width="140%" height="140%" color-interpolation-filters="sRGB">
      <feGaussianBlur stdDeviation="18" />
    </filter>
  </defs>

  <rect width="1200" height="1200" fill="url(#bg)" />

  <g filter="url(#soft)" opacity="0.9">
    <path
      d="M354 410C354 356.981 396.981 314 450 314H746C799.019 314 842 356.981 842 410V790C842 843.019 799.019 886 746 886H450C396.981 886 354 843.019 354 790V410Z"
      fill="url(#shape)"
    />
    <path
      d="M420 478C420 450.386 442.386 428 470 428H730C757.614 428 780 450.386 780 478V722C780 749.614 757.614 772 730 772H470C442.386 772 420 749.614 420 722V478Z"
      stroke="#AFA491"
      stroke-opacity="0.45"
      stroke-width="14"
      fill="none"
    />
  </g>

  <g opacity="0.55">
    <path
      d="M512 598C512 549.399 551.399 510 600 510C648.601 510 688 549.399 688 598C688 646.601 648.601 686 600 686C551.399 686 512 646.601 512 598Z"
      stroke="#9B9488"
      stroke-opacity="0.55"
      stroke-width="20"
    />
    <path d="M600 470V510" stroke="#9B9488" stroke-opacity="0.45" stroke-width="20" stroke-linecap="round" />
    <path d="M600 686V726" stroke="#9B9488" stroke-opacity="0.45" stroke-width="20" stroke-linecap="round" />
    <path d="M470 598H510" stroke="#9B9488" stroke-opacity="0.45" stroke-width="20" stroke-linecap="round" />
    <path d="M690 598H730" stroke="#9B9488" stroke-opacity="0.45" stroke-width="20" stroke-linecap="round" />
  </g>
</svg>

